REM DIRINDEX 1\2,1\3,1\4
REM DIRNAME cjc151,folder01,folder02,folder03
TITLE ""
FILE "137 137_TOEFL_3900.mp3" MP3
  TRACK 01 AUDIO
    TITLE "2:cjc151_5956"
    INDEX 01 00:00:00
  TRACK 02 AUDIO
    TITLE "0:"
    INDEX 01 00:01:36
  TRACK 03 AUDIO
    TITLE "3:cjc151_5957"
    INDEX 01 00:03:15
  TRACK 04 AUDIO
    TITLE "0:"
    INDEX 01 00:07:74
  TRACK 05 AUDIO
    TITLE "2:cjc151_5958"
    INDEX 01 00:09:49
  TRACK 06 AUDIO
    TITLE "0:"
    INDEX 01 00:10:70
  TRACK 07 AUDIO
    TITLE "3:cjc151_5959"
    INDEX 01 00:12:50
  TRACK 08 AUDIO
    TITLE "0:"
    INDEX 01 00:16:16
  TRACK 09 AUDIO
    TITLE "2:cjc151_5960"
    INDEX 01 00:17:70
  TRACK 10 AUDIO
    TITLE "0:"
    INDEX 01 00:19:01
  TRACK 11 AUDIO
    TITLE "3:cjc151_5961"
    INDEX 01 00:20:53
  TRACK 12 AUDIO
    TITLE "0:"
    INDEX 01 00:25:19
  TRACK 13 AUDIO
    TITLE "2:cjc151_5962"
    INDEX 01 00:26:71
  TRACK 14 AUDIO
    TITLE "0:"
    INDEX 01 00:28:13
  TRACK 15 AUDIO
    TITLE "3:cjc151_5963"
    INDEX 01 00:29:68
  TRACK 16 AUDIO
    TITLE "0:"
    INDEX 01 00:34:16
  TRACK 17 AUDIO
    TITLE "2:cjc151_5964"
    INDEX 01 00:35:68
  TRACK 18 AUDIO
    TITLE "0:"
    INDEX 01 00:37:01
  TRACK 19 AUDIO
    TITLE "3:cjc151_5965"
    INDEX 01 00:38:55
  TRACK 20 AUDIO
    TITLE "0:"
    INDEX 01 00:42:27
  TRACK 21 AUDIO
    TITLE "2:cjc151_5966"
    INDEX 01 00:44:07
  TRACK 22 AUDIO
    TITLE "0:"
    INDEX 01 00:45:24
  TRACK 23 AUDIO
    TITLE "3:cjc151_5967"
    INDEX 01 00:47:03
  TRACK 24 AUDIO
    TITLE "0:"
    INDEX 01 00:52:43
  TRACK 25 AUDIO
    TITLE "2:cjc151_5968"
    INDEX 01 00:54:23
  TRACK 26 AUDIO
    TITLE "0:"
    INDEX 01 00:55:57
  TRACK 27 AUDIO
    TITLE "3:cjc151_5969"
    INDEX 01 00:57:35
  TRACK 28 AUDIO
    TITLE "0:"
    INDEX 01 01:01:34
  TRACK 29 AUDIO
    TITLE "2:cjc151_5970"
    INDEX 01 01:03:12
  TRACK 30 AUDIO
    TITLE "0:"
    INDEX 01 01:04:35
  TRACK 31 AUDIO
    TITLE "3:cjc151_5971"
    INDEX 01 01:06:12
  TRACK 32 AUDIO
    TITLE "0:"
    INDEX 01 01:11:64
  TRACK 33 AUDIO
    TITLE "2:cjc151_5972"
    INDEX 01 01:13:44
  TRACK 34 AUDIO
    TITLE "0:"
    INDEX 01 01:14:27
  TRACK 35 AUDIO
    TITLE "3:cjc151_5973"
    INDEX 01 01:16:05
  TRACK 36 AUDIO
    TITLE "0:"
    INDEX 01 01:20:34
  TRACK 37 AUDIO
    TITLE "2:cjc151_5974"
    INDEX 01 01:22:13
  TRACK 38 AUDIO
    TITLE "0:"
    INDEX 01 01:23:32
  TRACK 39 AUDIO
    TITLE "3:cjc151_5975"
    INDEX 01 01:25:09
  TRACK 40 AUDIO
    TITLE "0:"
    INDEX 01 01:28:53
  TRACK 41 AUDIO
    TITLE "2:cjc151_5976"
    INDEX 01 01:30:26
  TRACK 42 AUDIO
    TITLE "0:"
    INDEX 01 01:31:30
  TRACK 43 AUDIO
    TITLE "3:cjc151_5977"
    INDEX 01 01:33:07
  TRACK 44 AUDIO
    TITLE "0:"
    INDEX 01 01:37:44
  TRACK 45 AUDIO
    TITLE "2:cjc151_5978"
    INDEX 01 01:39:23
  TRACK 46 AUDIO
    TITLE "0:"
    INDEX 01 01:40:35
  TRACK 47 AUDIO
    TITLE "3:cjc151_5979"
    INDEX 01 01:42:12
  TRACK 48 AUDIO
    TITLE "0:"
    INDEX 01 01:46:55
  TRACK 49 AUDIO
    TITLE "2:cjc151_5980"
    INDEX 01 01:48:34
  TRACK 50 AUDIO
    TITLE "0:"
    INDEX 01 01:49:51
  TRACK 51 AUDIO
    TITLE "3:cjc151_5981"
    INDEX 01 01:51:30
  TRACK 52 AUDIO
    TITLE "0:"
    INDEX 01 01:56:36
  TRACK 53 AUDIO
    TITLE "2:cjc151_5982"
    INDEX 01 01:58:13
  TRACK 54 AUDIO
    TITLE "0:"
    INDEX 01 01:59:44
  TRACK 55 AUDIO
    TITLE "3:cjc151_5983"
    INDEX 01 02:01:23
  TRACK 56 AUDIO
    TITLE "0:"
    INDEX 01 02:04:64
  TRACK 57 AUDIO
    TITLE "2:cjc151_5984"
    INDEX 01 02:06:46
  TRACK 58 AUDIO
    TITLE "0:"
    INDEX 01 02:07:61
  TRACK 59 AUDIO
    TITLE "3:cjc151_5985"
    INDEX 01 02:09:40
  TRACK 60 AUDIO
    TITLE "0:"
    INDEX 01 02:14:61
  TRACK 61 AUDIO
    TITLE "2:cjc151_5986"
    INDEX 01 02:16:40
  TRACK 62 AUDIO
    TITLE "0:"
    INDEX 01 02:17:32
  TRACK 63 AUDIO
    TITLE "3:cjc151_5987"
    INDEX 01 02:19:11
  TRACK 64 AUDIO
    TITLE "0:"
    INDEX 01 02:23:52
  TRACK 65 AUDIO
    TITLE "2:cjc151_5988"
    INDEX 01 02:25:29
  TRACK 66 AUDIO
    TITLE "0:"
    INDEX 01 02:26:54
  TRACK 67 AUDIO
    TITLE "3:cjc151_5989"
    INDEX 01 02:28:34
  TRACK 68 AUDIO
    TITLE "0:"
    INDEX 01 02:32:37
  TRACK 69 AUDIO
    TITLE "2:cjc151_5990"
    INDEX 01 02:34:17
  TRACK 70 AUDIO
    TITLE "0:"
    INDEX 01 02:35:16
  TRACK 71 AUDIO
    TITLE "3:cjc151_5991"
    INDEX 01 02:36:70
  TRACK 72 AUDIO
    TITLE "0:"
    INDEX 01 02:40:50
  TRACK 73 AUDIO
    TITLE "2:cjc151_5992"
    INDEX 01 02:42:30
  TRACK 74 AUDIO
    TITLE "0:"
    INDEX 01 02:43:72
  TRACK 75 AUDIO
    TITLE "3:cjc151_5993"
    INDEX 01 02:45:56
  TRACK 76 AUDIO
    TITLE "0:"
    INDEX 01 02:50:16
  TRACK 77 AUDIO
    TITLE "2:cjc151_5994"
    INDEX 01 02:51:68
  TRACK 78 AUDIO
    TITLE "0:"
    INDEX 01 02:53:12
  TRACK 79 AUDIO
    TITLE "3:cjc151_5995"
    INDEX 01 02:54:64
  TRACK 80 AUDIO
    TITLE "0:"
    INDEX 01 03:00:36
  TRACK 81 AUDIO
    TITLE "2:cjc151_5996"
    INDEX 01 03:02:13
  TRACK 82 AUDIO
    TITLE "0:"
    INDEX 01 03:03:30
  TRACK 83 AUDIO
    TITLE "3:cjc151_5997"
    INDEX 01 03:05:07
  TRACK 84 AUDIO
    TITLE "0:"
    INDEX 01 03:08:60
  TRACK 85 AUDIO
    TITLE "2:cjc151_5998"
    INDEX 01 03:10:40
  TRACK 86 AUDIO
    TITLE "0:"
    INDEX 01 03:11:59
  TRACK 87 AUDIO
    TITLE "3:cjc151_5999"
    INDEX 01 03:13:38
  TRACK 88 AUDIO
    TITLE "0:"
    INDEX 01 03:16:74
